# xmcd CD database file
#
# Track frame offsets:
#	150
#	16082
#	32433
#	54306
#	70564
#	89044
#	104514
#	117515
#	132455
#	149583
#	167055
#	183018
#	199047
#	216720
#	232714
#
# Disc length: 3622 seconds
#
# Revision: 1
# Processed by: cddbd v1.5.1PL2 Copyright (c) Steve Scherf et al.
# Submitted via: CDex 1.51
#
DISCID=d20e240f
DTITLE=Shania Twain - Come On Over
DYEAR=1999
DGENRE=Folk
TTITLE0=You're Still One
TTITLE1=When
TTITLE2=From This Moment On
TTITLE3=Black Eyes, Blue Tears
TTITLE4=I Won't Leave You Lonely
TTITLE5=I'm Holdin' On To Love
TTITLE6=Come On Over
TTITLE7=You've Got A Way
TTITLE8=Whatever You Do ! Don't !
TTITLE9=Man ! I Feek Like A Woman !
TTITLE10=Love Gets Me Every Time
TTITLE11=Don't Be Stupid
TTITLE12=That Don't Impress Me Much
TTITLE13=Honey, I'm Home
TTITLE14=If You Wanna Touch Her, Ask ! - Rock This Country
EXTD=YEAR: 1999
EXTT0=
EXTT1=
EXTT2=
EXTT3=
EXTT4=
EXTT5=
EXTT6=
EXTT7=
EXTT8=
EXTT9=
EXTT10=
EXTT11=
EXTT12=
EXTT13=
EXTT14=
PLAYORDER=
